<mxfile host="app.diagrams.net" agent="Mozilla/5.0 (Windows NT 10.0; Win64; x64) AppleWebKit/537.36 (KHTML, like Gecko) Chrome/136.0.0.0 Safari/537.36" version="27.0.9">
  <diagram id="C5RBs43oDa-KdzZeNtuy" name="Page-1">
    <mxGraphModel dx="487" dy="558" grid="1" gridSize="10" guides="1" tooltips="1" connect="1" arrows="1" fold="1" page="1" pageScale="1" pageWidth="827" pageHeight="1169" math="0" shadow="0">
      <root>
        <mxCell id="WIyWlLk6GJQsqaUBKTNV-0" />
        <mxCell id="WIyWlLk6GJQsqaUBKTNV-1" parent="WIyWlLk6GJQsqaUBKTNV-0" />
        <mxCell id="4csor9sGUiZnkvSwnMOb-11" value="" style="group" parent="WIyWlLk6GJQsqaUBKTNV-1" vertex="1" connectable="0">
          <mxGeometry x="30" y="280" width="200" height="200" as="geometry" />
        </mxCell>
        <mxCell id="4csor9sGUiZnkvSwnMOb-3" value="" style="whiteSpace=wrap;html=1;aspect=fixed;" parent="4csor9sGUiZnkvSwnMOb-11" vertex="1">
          <mxGeometry width="200" height="200" as="geometry" />
        </mxCell>
        <mxCell id="4csor9sGUiZnkvSwnMOb-5" value="" style="endArrow=none;html=1;rounded=0;fontSize=12;startSize=8;endSize=8;curved=1;exitX=0;exitY=0.5;exitDx=0;exitDy=0;entryX=1;entryY=0.5;entryDx=0;entryDy=0;" parent="4csor9sGUiZnkvSwnMOb-11" source="4csor9sGUiZnkvSwnMOb-3" target="4csor9sGUiZnkvSwnMOb-3" edge="1">
          <mxGeometry width="50" height="50" relative="1" as="geometry">
            <mxPoint x="170" y="190" as="sourcePoint" />
            <mxPoint x="220" y="140" as="targetPoint" />
          </mxGeometry>
        </mxCell>
        <mxCell id="4csor9sGUiZnkvSwnMOb-9" value="" style="endArrow=none;html=1;rounded=0;fontSize=12;startSize=8;endSize=8;curved=1;exitX=0.006;exitY=0.622;exitDx=0;exitDy=0;exitPerimeter=0;" parent="4csor9sGUiZnkvSwnMOb-11" source="4csor9sGUiZnkvSwnMOb-3" edge="1">
          <mxGeometry width="50" height="50" relative="1" as="geometry">
            <mxPoint x="10" y="100" as="sourcePoint" />
            <mxPoint x="200" y="121" as="targetPoint" />
          </mxGeometry>
        </mxCell>
        <mxCell id="4csor9sGUiZnkvSwnMOb-12" value="Reprodutor Musical" style="text;html=1;align=center;verticalAlign=middle;whiteSpace=wrap;rounded=0;" parent="4csor9sGUiZnkvSwnMOb-11" vertex="1">
          <mxGeometry x="35" y="40" width="130" height="30" as="geometry" />
        </mxCell>
        <mxCell id="yDcNEE3U4yrFKRcQkQcA-16" value="&amp;lt;&amp;lt; interface &amp;gt;&amp;gt;" style="text;html=1;align=center;verticalAlign=middle;whiteSpace=wrap;rounded=0;" vertex="1" parent="4csor9sGUiZnkvSwnMOb-11">
          <mxGeometry x="43" y="10" width="114" height="30" as="geometry" />
        </mxCell>
        <mxCell id="yDcNEE3U4yrFKRcQkQcA-24" value="+ Tocar(): void" style="text;html=1;align=center;verticalAlign=middle;resizable=0;points=[];autosize=1;strokeColor=none;fillColor=none;fontSize=16;" vertex="1" parent="4csor9sGUiZnkvSwnMOb-11">
          <mxGeometry x="10" y="120" width="130" height="30" as="geometry" />
        </mxCell>
        <mxCell id="yDcNEE3U4yrFKRcQkQcA-26" value="&lt;div style=&quot;text-align: center;&quot;&gt;&lt;span style=&quot;background-color: transparent; text-align: start; color: rgba(0, 0, 0, 0);&quot;&gt;+ SelecionarMusica&lt;/span&gt;&lt;span style=&quot;background-color: transparent; color: rgba(0, 0, 0, 0); font-family: monospace; font-size: 0px; text-align: start;&quot;&gt;%3Cm xGraphModel%3E%3Croot%3E%3CmxCell%20id%3D%220%22%2F%3E%3CmxCell%20id%3D%221%22%20parent%3D%220%22%2F%3E%3CmxCell%20id%3D%222%22%20value%3D%22Tocar()%3A%22%20style%3D%22text%3Bhtml%3D1%3Balign%3Dcenter%3BverticalAlign%3Dmiddle%3Bresizable%3D0%3Bpoints%3D%5B%5D%3Bautosize%3D1%3BstrokeColor%3Dnone%3BfillColor%3Dnone%3BfontSize%3D16%3B%22%20vertex%3D%221%22%20parent%3D%221%22%3E%3CmxGeometry%20x%3D%2250%22%20y%3D%22410%22%20width%3D%2280%22%20height%3D%2230%22%20as%3D%22geometry%22%2F%3E%3C%2FmxCell%3E%3C%2Froot%3E%3C%2FmxGraphModel%3E&lt;/span&gt;&lt;span style=&quot;background-color: transparent; color: light-dark(rgb(0, 0, 0), rgb(255, 255, 255));&quot;&gt;(): void&lt;/span&gt;&lt;/div&gt;" style="text;html=1;align=center;verticalAlign=middle;resizable=0;points=[];autosize=1;strokeColor=none;fillColor=none;fontSize=16;" vertex="1" parent="4csor9sGUiZnkvSwnMOb-11">
          <mxGeometry x="-5" y="170" width="210" height="30" as="geometry" />
        </mxCell>
        <mxCell id="yDcNEE3U4yrFKRcQkQcA-25" value="+ Pausar&lt;span style=&quot;color: rgba(0, 0, 0, 0); font-family: monospace; font-size: 0px; text-align: start;&quot;&gt;%3CmxGraphModel%3E%3Croot%3E%3CmxCell%20id%3D%220%22%2F%3E%3CmxCell%20id%3D%221%22%20parent%3D%220%22%2F%3E%3CmxCell%20id%3D%222%22%20value%3D%22Tocar()%3A%22%20style%3D%22text%3Bhtml%3D1%3Balign%3Dcenter%3BverticalAlign%3Dmiddle%3Bresizable%3D0%3Bpoints%3D%5B%5D%3Bautosize%3D1%3BstrokeColor%3Dnone%3BfillColor%3Dnone%3BfontSize%3D16%3B%22%20vertex%3D%221%22%20parent%3D%221%22%3E%3CmxGeometry%20x%3D%2250%22%20y%3D%22410%22%20width%3D%2280%22%20height%3D%2230%22%20as%3D%22geometry%22%2F%3E%3C%2FmxCell%3E%3C%2Froot%3E%3C%2FmxGraphModel%3E&lt;/span&gt;(): void" style="text;html=1;align=center;verticalAlign=middle;resizable=0;points=[];autosize=1;strokeColor=none;fillColor=none;fontSize=16;" vertex="1" parent="4csor9sGUiZnkvSwnMOb-11">
          <mxGeometry x="5" y="150" width="140" height="30" as="geometry" />
        </mxCell>
        <mxCell id="yDcNEE3U4yrFKRcQkQcA-0" value="" style="group" vertex="1" connectable="0" parent="WIyWlLk6GJQsqaUBKTNV-1">
          <mxGeometry x="320" y="280" width="200" height="200" as="geometry" />
        </mxCell>
        <mxCell id="yDcNEE3U4yrFKRcQkQcA-1" value="" style="whiteSpace=wrap;html=1;aspect=fixed;" vertex="1" parent="yDcNEE3U4yrFKRcQkQcA-0">
          <mxGeometry width="200" height="200" as="geometry" />
        </mxCell>
        <mxCell id="yDcNEE3U4yrFKRcQkQcA-2" value="" style="endArrow=none;html=1;rounded=0;fontSize=12;startSize=8;endSize=8;curved=1;exitX=0;exitY=0.5;exitDx=0;exitDy=0;entryX=1;entryY=0.5;entryDx=0;entryDy=0;" edge="1" parent="yDcNEE3U4yrFKRcQkQcA-0" source="yDcNEE3U4yrFKRcQkQcA-1" target="yDcNEE3U4yrFKRcQkQcA-1">
          <mxGeometry width="50" height="50" relative="1" as="geometry">
            <mxPoint x="170" y="190" as="sourcePoint" />
            <mxPoint x="220" y="140" as="targetPoint" />
          </mxGeometry>
        </mxCell>
        <mxCell id="yDcNEE3U4yrFKRcQkQcA-3" value="" style="endArrow=none;html=1;rounded=0;fontSize=12;startSize=8;endSize=8;curved=1;exitX=0.006;exitY=0.622;exitDx=0;exitDy=0;exitPerimeter=0;" edge="1" parent="yDcNEE3U4yrFKRcQkQcA-0" source="yDcNEE3U4yrFKRcQkQcA-1">
          <mxGeometry width="50" height="50" relative="1" as="geometry">
            <mxPoint x="10" y="100" as="sourcePoint" />
            <mxPoint x="200" y="121" as="targetPoint" />
          </mxGeometry>
        </mxCell>
        <mxCell id="yDcNEE3U4yrFKRcQkQcA-4" value="Telefone" style="text;html=1;align=center;verticalAlign=middle;whiteSpace=wrap;rounded=0;" vertex="1" parent="yDcNEE3U4yrFKRcQkQcA-0">
          <mxGeometry x="35" y="40" width="130" height="30" as="geometry" />
        </mxCell>
        <mxCell id="yDcNEE3U4yrFKRcQkQcA-15" value="&amp;lt;&amp;lt; interface &amp;gt;&amp;gt;" style="text;html=1;align=center;verticalAlign=middle;whiteSpace=wrap;rounded=0;" vertex="1" parent="yDcNEE3U4yrFKRcQkQcA-0">
          <mxGeometry x="37" y="10" width="114" height="30" as="geometry" />
        </mxCell>
        <mxCell id="yDcNEE3U4yrFKRcQkQcA-27" value="+ Ligar(): void" style="text;html=1;align=center;verticalAlign=middle;resizable=0;points=[];autosize=1;strokeColor=none;fillColor=none;fontSize=16;" vertex="1" parent="yDcNEE3U4yrFKRcQkQcA-0">
          <mxGeometry x="-6.5" y="120" width="120" height="30" as="geometry" />
        </mxCell>
        <mxCell id="yDcNEE3U4yrFKRcQkQcA-30" value="+ IniciarCorreioVoz(): void" style="text;html=1;align=center;verticalAlign=middle;resizable=0;points=[];autosize=1;strokeColor=none;fillColor=none;fontSize=16;" vertex="1" parent="yDcNEE3U4yrFKRcQkQcA-0">
          <mxGeometry x="-11" y="170" width="210" height="30" as="geometry" />
        </mxCell>
        <mxCell id="yDcNEE3U4yrFKRcQkQcA-28" value="+ Atender(): void" style="text;html=1;align=center;verticalAlign=middle;resizable=0;points=[];autosize=1;strokeColor=none;fillColor=none;fontSize=16;" vertex="1" parent="yDcNEE3U4yrFKRcQkQcA-0">
          <mxGeometry x="-6.5" y="150" width="140" height="30" as="geometry" />
        </mxCell>
        <mxCell id="yDcNEE3U4yrFKRcQkQcA-5" value="" style="group" vertex="1" connectable="0" parent="WIyWlLk6GJQsqaUBKTNV-1">
          <mxGeometry x="600" y="280" width="200" height="200" as="geometry" />
        </mxCell>
        <mxCell id="yDcNEE3U4yrFKRcQkQcA-6" value="" style="whiteSpace=wrap;html=1;aspect=fixed;" vertex="1" parent="yDcNEE3U4yrFKRcQkQcA-5">
          <mxGeometry width="200" height="200" as="geometry" />
        </mxCell>
        <mxCell id="yDcNEE3U4yrFKRcQkQcA-7" value="" style="endArrow=none;html=1;rounded=0;fontSize=12;startSize=8;endSize=8;curved=1;exitX=0;exitY=0.5;exitDx=0;exitDy=0;entryX=1;entryY=0.5;entryDx=0;entryDy=0;" edge="1" parent="yDcNEE3U4yrFKRcQkQcA-5" source="yDcNEE3U4yrFKRcQkQcA-6" target="yDcNEE3U4yrFKRcQkQcA-6">
          <mxGeometry width="50" height="50" relative="1" as="geometry">
            <mxPoint x="170" y="190" as="sourcePoint" />
            <mxPoint x="220" y="140" as="targetPoint" />
          </mxGeometry>
        </mxCell>
        <mxCell id="yDcNEE3U4yrFKRcQkQcA-8" value="" style="endArrow=none;html=1;rounded=0;fontSize=12;startSize=8;endSize=8;curved=1;exitX=0.006;exitY=0.622;exitDx=0;exitDy=0;exitPerimeter=0;" edge="1" parent="yDcNEE3U4yrFKRcQkQcA-5" source="yDcNEE3U4yrFKRcQkQcA-6">
          <mxGeometry width="50" height="50" relative="1" as="geometry">
            <mxPoint x="10" y="100" as="sourcePoint" />
            <mxPoint x="200" y="121" as="targetPoint" />
          </mxGeometry>
        </mxCell>
        <mxCell id="yDcNEE3U4yrFKRcQkQcA-9" value="Navegador" style="text;html=1;align=center;verticalAlign=middle;whiteSpace=wrap;rounded=0;" vertex="1" parent="yDcNEE3U4yrFKRcQkQcA-5">
          <mxGeometry x="35" y="40" width="130" height="30" as="geometry" />
        </mxCell>
        <mxCell id="yDcNEE3U4yrFKRcQkQcA-17" value="&amp;lt;&amp;lt; interface &amp;gt;&amp;gt;" style="text;html=1;align=center;verticalAlign=middle;whiteSpace=wrap;rounded=0;" vertex="1" parent="yDcNEE3U4yrFKRcQkQcA-5">
          <mxGeometry x="43" y="10" width="114" height="30" as="geometry" />
        </mxCell>
        <mxCell id="yDcNEE3U4yrFKRcQkQcA-32" value="+ ExibirPagina(): void" style="text;html=1;align=center;verticalAlign=middle;resizable=0;points=[];autosize=1;strokeColor=none;fillColor=none;fontSize=16;" vertex="1" parent="yDcNEE3U4yrFKRcQkQcA-5">
          <mxGeometry x="-5" y="120" width="180" height="30" as="geometry" />
        </mxCell>
        <mxCell id="yDcNEE3U4yrFKRcQkQcA-33" value="+ AdcionarNovaAba(): void" style="text;html=1;align=center;verticalAlign=middle;resizable=0;points=[];autosize=1;strokeColor=none;fillColor=none;fontSize=16;" vertex="1" parent="yDcNEE3U4yrFKRcQkQcA-5">
          <mxGeometry x="-5" y="140" width="210" height="30" as="geometry" />
        </mxCell>
        <mxCell id="yDcNEE3U4yrFKRcQkQcA-34" value="+ AtualizarPagina(): void" style="text;html=1;align=center;verticalAlign=middle;resizable=0;points=[];autosize=1;strokeColor=none;fillColor=none;fontSize=16;" vertex="1" parent="yDcNEE3U4yrFKRcQkQcA-5">
          <mxGeometry x="-5" y="170" width="200" height="30" as="geometry" />
        </mxCell>
        <mxCell id="yDcNEE3U4yrFKRcQkQcA-10" value="" style="group" vertex="1" connectable="0" parent="WIyWlLk6GJQsqaUBKTNV-1">
          <mxGeometry x="314" y="640" width="200" height="200" as="geometry" />
        </mxCell>
        <mxCell id="yDcNEE3U4yrFKRcQkQcA-11" value="" style="whiteSpace=wrap;html=1;aspect=fixed;" vertex="1" parent="yDcNEE3U4yrFKRcQkQcA-10">
          <mxGeometry width="200" height="200" as="geometry" />
        </mxCell>
        <mxCell id="yDcNEE3U4yrFKRcQkQcA-12" value="" style="endArrow=none;html=1;rounded=0;fontSize=12;startSize=8;endSize=8;curved=1;exitX=0;exitY=0.5;exitDx=0;exitDy=0;entryX=1;entryY=0.5;entryDx=0;entryDy=0;" edge="1" parent="yDcNEE3U4yrFKRcQkQcA-10" source="yDcNEE3U4yrFKRcQkQcA-11" target="yDcNEE3U4yrFKRcQkQcA-11">
          <mxGeometry width="50" height="50" relative="1" as="geometry">
            <mxPoint x="170" y="190" as="sourcePoint" />
            <mxPoint x="220" y="140" as="targetPoint" />
          </mxGeometry>
        </mxCell>
        <mxCell id="yDcNEE3U4yrFKRcQkQcA-13" value="" style="endArrow=none;html=1;rounded=0;fontSize=12;startSize=8;endSize=8;curved=1;exitX=0.006;exitY=0.622;exitDx=0;exitDy=0;exitPerimeter=0;" edge="1" parent="yDcNEE3U4yrFKRcQkQcA-10" source="yDcNEE3U4yrFKRcQkQcA-11">
          <mxGeometry width="50" height="50" relative="1" as="geometry">
            <mxPoint x="10" y="100" as="sourcePoint" />
            <mxPoint x="200" y="121" as="targetPoint" />
          </mxGeometry>
        </mxCell>
        <mxCell id="yDcNEE3U4yrFKRcQkQcA-14" value="IPhone&amp;nbsp;" style="text;html=1;align=center;verticalAlign=middle;whiteSpace=wrap;rounded=0;" vertex="1" parent="yDcNEE3U4yrFKRcQkQcA-10">
          <mxGeometry x="35" y="40" width="130" height="30" as="geometry" />
        </mxCell>
        <mxCell id="yDcNEE3U4yrFKRcQkQcA-18" value="" style="endArrow=classic;html=1;rounded=0;fontSize=12;startSize=8;endSize=8;curved=1;exitX=0.25;exitY=0;exitDx=0;exitDy=0;" edge="1" parent="WIyWlLk6GJQsqaUBKTNV-1" source="yDcNEE3U4yrFKRcQkQcA-11">
          <mxGeometry width="50" height="50" relative="1" as="geometry">
            <mxPoint x="210" y="580" as="sourcePoint" />
            <mxPoint x="210" y="490" as="targetPoint" />
          </mxGeometry>
        </mxCell>
        <mxCell id="yDcNEE3U4yrFKRcQkQcA-19" value="" style="endArrow=classic;html=1;rounded=0;fontSize=12;startSize=8;endSize=8;curved=1;exitX=0.75;exitY=0;exitDx=0;exitDy=0;" edge="1" parent="WIyWlLk6GJQsqaUBKTNV-1" source="yDcNEE3U4yrFKRcQkQcA-11">
          <mxGeometry width="50" height="50" relative="1" as="geometry">
            <mxPoint x="514" y="710" as="sourcePoint" />
            <mxPoint x="690" y="490" as="targetPoint" />
          </mxGeometry>
        </mxCell>
        <mxCell id="yDcNEE3U4yrFKRcQkQcA-20" value="" style="endArrow=classic;html=1;rounded=0;fontSize=12;startSize=8;endSize=8;curved=1;exitX=0.5;exitY=0;exitDx=0;exitDy=0;" edge="1" parent="WIyWlLk6GJQsqaUBKTNV-1" source="yDcNEE3U4yrFKRcQkQcA-11">
          <mxGeometry width="50" height="50" relative="1" as="geometry">
            <mxPoint x="544" y="710" as="sourcePoint" />
            <mxPoint x="420" y="490" as="targetPoint" />
          </mxGeometry>
        </mxCell>
      </root>
    </mxGraphModel>
  </diagram>
</mxfile>
